<svg width="25" height="19" viewBox="0 0 25 19" fill="none" xmlns="http://www.w3.org/2000/svg">
<path d="M20.757 2.20064C19.1946 1.48573 17.551 0.969811 15.8558 0.682373C15.6421 1.05825 15.3989 1.55943 15.2294 1.97216C13.4311 1.70683 11.5959 1.70683 9.79754 1.97216C9.60592 1.52995 9.39216 1.10248 9.15632 0.682373C7.46117 0.969811 5.81024 1.47836 4.24775 2.20064C1.15226 6.81439 0.312068 11.3176 0.73217 15.7471C2.54524 17.0958 4.57942 18.1203 6.74626 18.7836C7.2327 18.1203 7.66017 17.4275 8.03605 16.6905C7.33588 16.4251 6.65782 16.1009 6.00924 15.725C6.17876 15.5997 6.34091 15.467 6.49568 15.3417C10.3061 17.1401 14.7208 17.1401 18.5239 15.3417C18.686 15.4744 18.8555 15.6071 19.0177 15.7323C18.3691 16.1156 17.691 16.4399 16.9835 16.7052C17.352 17.4349 17.7869 18.135 18.2733 18.791C20.4401 18.135 22.4743 17.1106 24.2874 15.7545C24.7738 10.6174 23.4398 6.15107 20.7497 2.20064M8.55198 13.0348C7.38011 13.0348 6.4146 11.9588 6.4146 10.6395C6.4146 9.32026 7.358 8.23684 8.55198 8.23684C9.74595 8.23684 10.6967 9.31289 10.6893 10.6322C10.6746 11.9514 9.74595 13.0348 8.55198 13.0348ZM16.4455 13.0348C15.2736 13.0348 14.3081 11.9588 14.3081 10.6395C14.3081 9.32026 15.2515 8.23684 16.4455 8.23684C17.6394 8.23684 18.5902 9.31289 18.5828 10.6322C18.5681 11.9514 17.6394 13.0348 16.4455 13.0348Z" fill="#F0E74D"/>
</svg>
