<svg width="24" height="22" viewBox="0 0 24 22" fill="none" xmlns="http://www.w3.org/2000/svg">
<path d="M0.553223 8.34821C0.612185 7.98427 0.658095 7.61771 0.732812 7.25683C1.128 5.34898 2.07005 3.73482 3.53782 2.41085C4.7981 1.27452 6.27217 0.525261 7.96048 0.193178C9.95532 -0.199563 11.8858 0.00335336 13.7379 0.838145C15.5815 1.66944 16.9957 2.95283 17.986 4.66911C18.6323 5.78929 19.005 6.99457 19.1085 8.27926C19.2629 10.1963 18.833 11.9789 17.8221 13.6288C17.7285 13.782 17.7794 13.8536 17.8851 13.9561C19.5604 15.5759 21.2316 17.1993 22.9055 18.82C23.4776 19.3742 23.7004 20.0174 23.4529 20.7828C23.0788 21.9379 21.517 22.3874 20.5533 21.6172C20.4264 21.5159 20.304 21.4086 20.1878 21.296C18.5616 19.7215 16.935 18.1471 15.3142 16.567C15.1886 16.4443 15.1053 16.4365 14.9604 16.5316C13.8536 17.2564 12.6343 17.7238 11.3178 17.9136C8.76796 18.281 6.42475 17.757 4.34305 16.2632C2.30005 14.7979 1.08749 12.8276 0.655845 10.4031C0.613986 10.1697 0.58698 9.93357 0.553223 9.69836C0.553223 9.24846 0.553223 8.79855 0.553223 8.34821ZM16.1239 9.01761C16.1262 5.66274 13.3027 2.93014 9.84234 2.93712C6.38064 2.94454 3.56888 5.63918 3.57113 9.00409C3.57293 12.4083 6.37119 15.0859 9.84009 15.0994C13.2991 15.1125 16.1217 12.3725 16.1239 9.01761Z" fill="white"/>
</svg>
