<svg width="26" height="27" viewBox="0 0 26 27" fill="none" xmlns="http://www.w3.org/2000/svg">
<path d="M13.1496 0.972656C6.10008 0.972656 0.385742 6.687 0.385742 13.7366C0.385742 20.7861 6.10008 26.5005 13.1496 26.5005C20.1992 26.5005 25.9136 20.7861 25.9136 13.7366C25.9136 6.687 20.2007 0.972656 13.1496 0.972656ZM19.0027 19.3823C18.7741 19.7573 18.2833 19.8762 17.9083 19.646C14.9117 17.8154 11.1392 17.4008 6.69606 18.416C6.26775 18.5135 5.84096 18.2452 5.74341 17.8169C5.64586 17.3886 5.9126 16.9618 6.34244 16.8643C11.2047 15.7531 15.375 16.2317 18.7405 18.2879C19.1155 18.5181 19.2344 19.0074 19.0042 19.3823H19.0027ZM20.565 15.9071C20.277 16.375 19.6642 16.5229 19.1963 16.2348C15.7652 14.1252 10.5356 13.5156 6.47657 14.7471C5.95071 14.9056 5.39436 14.6099 5.23432 14.0841C5.0758 13.5582 5.37302 13.0034 5.89736 12.8434C10.5325 11.4365 16.2957 12.1178 20.2358 14.5398C20.7037 14.8279 20.8516 15.4407 20.5635 15.9086L20.565 15.9071ZM20.6992 12.287C16.5853 9.84368 9.79787 9.61962 5.86992 10.8116C5.23889 11.0021 4.5728 10.6469 4.38075 10.0159C4.19022 9.38489 4.54537 8.7188 5.1764 8.52674C9.68507 7.15798 17.1812 7.42168 21.917 10.2339C22.4856 10.5707 22.6715 11.3039 22.3347 11.8694C21.9993 12.4364 21.2647 12.6239 20.6992 12.287Z" fill="#F0E74D"/>
</svg>
