<svg width="21" height="17" viewBox="0 0 21 17" fill="none" xmlns="http://www.w3.org/2000/svg">
<path d="M20.5503 2.47797C19.9165 2.7654 19.2089 2.94229 18.5308 3.05284C18.8551 3.00125 19.3342 2.41163 19.5258 2.16842C19.8206 1.80728 20.0565 1.38717 20.1965 0.944961C20.2113 0.90811 20.226 0.863889 20.1965 0.841778C20.1523 0.827038 20.1228 0.834408 20.086 0.849149C19.3195 1.26188 18.5309 1.55669 17.6833 1.77042C17.6169 1.78517 17.5654 1.77042 17.5211 1.7262C17.4474 1.64513 17.3885 1.57143 17.3074 1.51247C16.9536 1.21029 16.5777 0.974442 16.1429 0.797557C15.5828 0.56908 14.9637 0.473268 14.3593 0.510119C13.7697 0.54697 13.1874 0.716485 12.6715 0.989183C12.1482 1.26188 11.6766 1.64513 11.308 2.10208C10.9248 2.58115 10.6374 3.14128 10.4973 3.7309C10.3573 4.30578 10.3647 4.87328 10.4531 5.45553C10.4678 5.55134 10.4531 5.56608 10.372 5.55134C7.07754 5.05754 4.34319 3.88568 2.13213 1.35769C2.03632 1.24714 1.98473 1.24714 1.90366 1.36506C0.930788 2.81699 1.40248 5.15335 2.61856 6.30311C2.78071 6.45788 2.95022 6.61265 3.12711 6.75269C3.06078 6.76743 2.25743 6.67899 1.53515 6.30311C1.43933 6.24414 1.38774 6.27362 1.38037 6.38418C1.373 6.53895 1.38037 6.68636 1.40985 6.85587C1.5941 8.32991 2.61857 9.6934 4.01154 10.2241C4.18105 10.2978 4.35793 10.3567 4.54219 10.3862C4.22527 10.4525 3.89361 10.5041 2.97971 10.4378C2.86915 10.4157 2.82493 10.4746 2.86915 10.5852C3.55458 12.4572 5.03599 13.01 6.14889 13.3269C6.2963 13.3564 6.44371 13.3564 6.59111 13.3859C6.58374 13.4006 6.57637 13.4006 6.569 13.4154C6.20048 13.9755 4.92544 14.3956 4.32846 14.602C3.24504 14.9778 2.07317 15.1474 0.930789 15.0368C0.746533 15.0073 0.70968 15.0147 0.658089 15.0368C0.606497 15.0663 0.658088 15.1105 0.70968 15.1621C0.945527 15.3169 1.174 15.4495 1.41722 15.5822C2.14687 15.9655 2.89863 16.275 3.68725 16.4887C7.77034 17.6164 12.3694 16.7909 15.4354 13.7396C17.8454 11.3443 18.6856 8.04985 18.6856 4.74062C18.6856 4.60796 18.8404 4.54163 18.9288 4.46792C19.5553 3.99623 20.0639 3.43609 20.5282 2.80225C20.6314 2.66222 20.6314 2.53693 20.6314 2.48534V2.4706C20.6314 2.419 20.6314 2.43374 20.5503 2.4706" fill="#F0E74D"/>
</svg>
