<svg width="27" height="19" viewBox="0 0 27 19" fill="none" xmlns="http://www.w3.org/2000/svg">
<path d="M17.8671 0.828857C17.9714 0.978508 18.1301 0.899148 18.2594 0.903682C19.7536 0.971705 21.2501 1.02386 22.7376 1.20979C24.7465 1.4592 25.7646 2.42059 26.0639 4.42273C26.4561 7.0348 26.4697 9.66048 26.3314 12.2907C26.277 13.3314 26.1908 14.3654 25.9981 15.3925C25.6852 17.0636 24.6422 18.05 22.9507 18.2495C20.1663 18.5805 17.366 18.6055 14.5703 18.6372C11.7065 18.669 8.84276 18.5919 5.98354 18.4037C5.33506 18.3606 4.68657 18.2926 4.04716 18.1747C2.65496 17.9184 1.68903 16.9911 1.38747 15.6057C1.14712 14.5082 1.08363 13.3904 0.995202 12.2748C0.986132 12.1569 1.06096 12.0118 0.913574 11.9234V7.54951C1.06096 7.46108 0.986132 7.31596 0.995202 7.19806C1.07456 6.21399 1.14258 5.22766 1.30811 4.25267C1.61648 2.42739 2.65269 1.4456 4.48704 1.20979C5.94726 1.02386 7.41429 0.978508 8.88131 0.90595C9.01055 0.899148 9.16927 0.980775 9.27131 0.828857H17.8671V0.828857ZM11.1578 5.9419V13.531C13.3708 12.259 15.5407 11.0119 17.7606 9.73531C15.5294 8.45194 13.364 7.2094 11.1578 5.9419Z" fill="#F0E74D"/>
</svg>
