<svg width="274" height="44" viewBox="0 0 274 44" fill="none" xmlns="http://www.w3.org/2000/svg">
<path d="M274 7.89228V18.2825L273.397 19.002L273.096 19.8427V19.3037L272.493 18.7621L272.009 18.2825L271.709 19.1232L271.165 19.1825L270.562 18.7028V18.2825L270.08 18.9427H269.477L269.055 18.2825L268.149 18.5816L267.668 19.0613L267.124 18.5816C267.124 18.5816 266.521 19.1825 266.28 19.1825H265.677L265.136 18.5816H264.47L263.929 19.002L263.326 18.5816L262.663 19.002L261.819 19.3037V19.9045L260.913 19.3037V19.9639H260.129L259.828 20.5647L259.166 19.9639H258.5L257.959 20.4436L257.294 20.6834H256.45L256.15 21.2249L255.306 21.5266L254.521 21.8258L254.821 22.6072L254.099 22.5478L253.496 21.8258H252.411L251.324 22.1868V22.7877H250.661L249.939 23.3267L249.336 22.7877V23.3267L248.851 23.8682L248.31 24.0487L247.645 23.3267L247.223 23.9894L246.801 24.4097L246.017 24.1081V23.6284L245.173 23.569V23.9894L244.269 23.3267L243.847 23.569V24.1674L243.122 23.7471L242.097 23.3267H241.375L240.891 23.8682L239.625 23.3267L239.203 23.8682H238.599L237.996 24.4097L236.73 23.8682H236.127L234.861 24.6496L234.077 24.2886L233.233 23.8682L232.932 24.3479L232.329 24.7089H231.604L231.363 25.3098L229.916 24.7089V25.431L229.554 26.0318L229.072 25.8513L228.347 25.4903L227.685 25.97L226.9 26.0318L226.478 25.0699H226.237L226.478 26.0318L226.9 26.7514L226.419 26.692L225.937 26.5709L225.212 26.0318H224.187V26.3904H223.465L222.981 26.692L222.439 26.3904V27.8319L221.715 27.6539L221.111 27.9531V27.1124L220.63 26.7514V27.4116L219.724 27.5327L219.242 27.4116L218.095 26.9912L217.614 26.3904V27.5921L216.889 26.9912H216.167L215.864 27.8937L215.442 28.4946L214.598 28.3141L214.057 27.8937V28.6133L213.213 29.3946V28.4328L212.307 28.3141L211.522 27.8937L211.222 28.6133L210.256 27.8937V28.1929L209.231 27.8937V28.2523L207.965 28.6751V28.3734L207.603 27.8937L206.94 28.3734L206.637 28.5539L206.337 29.2141L205.011 28.7344V29.2141L204.586 28.7938V27.8937L203.683 28.0742V28.9743L202.961 29.6345L203.261 28.7938L202.779 27.8937V28.3141L202.055 28.7938V27.8937H201.511V28.7938L201.151 28.3141H200.064L199.46 28.7344L199.101 28.3141H197.05L196.688 29.0336L196.206 29.2735L195.603 29.0336V30.4752L194.878 29.7557V29.3353H194.215V30.8362L193.853 30.2947L193.371 29.9362L192.587 30.176L192.165 29.3946L191.621 29.1548L190.777 29.3946L190.234 29.6963L189.752 29.2735L189.089 29.3353L188.546 29.2141L188.064 30.8362V29.6963L187.702 29.1548L187.098 28.7344L186.736 28.3141L186.133 28.6751H184.929V29.3353L184.385 29.8743L183.66 30.1735L182.938 31.0761V30.2947C182.938 29.815 182.154 30.8956 182.154 30.8956L181.25 31.2566L180.888 31.1972L179.922 30.8956L179.2 30.7175L178.415 30.2947L177.872 30.7769L177.45 31.2566H177.028L176.606 31.9168L176.062 31.2566L175.821 31.9168L175.28 32.5176H173.108L172.805 32.938H171.72L171.179 33.2397L170.454 33.6007L169.851 33.2397L169.37 33.7194L168.704 33.8405L168.104 33.66L167.679 33.6007L167.198 33.66L166.957 34.3796L166.475 33.7194L166.113 33.2397H165.51L165.088 33.5389L164.604 34.2015L163.941 34.4414L163.218 34.7406L162.978 34.4414L162.494 35.1609L161.59 35.4626V35.2227L160.624 34.8617L160.021 34.8024L159.478 35.6431L158.996 36.0016V36.4838H158.333L157.79 36.0635L157.489 37.505V36.3033L156.645 35.7618L155.62 35.5219V35.7024L155.258 35.6431L154.714 35.1016L154.352 35.9423L154.051 35.4626L153.448 35.5219L153.026 35.8236L152.182 35.5219L151.76 35.8236L151.398 36.8448V36.1821L150.494 36.3627L150.072 36.1228V37.0228L149.225 37.2652V36.6643L148.684 36.1821L147.6 36.1228V36.422L146.815 36.3627L146.09 36.4838L145.549 37.144L144.643 36.4838V37.2652L144.099 37.3839L143.618 37.144V37.6855H142.955L142.652 37.3245L141.989 36.9042V37.505L141.267 37.9847L140.723 37.8042L140.061 37.505V37.9254L139.639 37.6855L139.095 37.6237L138.551 38.1059L137.889 37.4432V38.1059L137.467 37.6237L137.166 36.9635L136.623 36.5432L136.26 36.7237L135.657 35.8236L135.357 36.3627L134.438 35.8236H133.728L133.065 36.0016L132.581 36.422L132.1 35.883V36.6643L131.437 36.783V36.422L130.834 36.6025L130.109 36.3627L129.568 36.422L128.903 35.9423L128.662 36.6025H128.059V35.7618L127.517 36.1228L126.974 36.244L126.611 36.4838L126.189 35.7618L125.708 35.883V36.4838L125.224 36.7237L124.923 36.4838L124.02 36.3627L123.536 35.883L123.235 36.1821L122.451 35.6431V36.5432H121.788V35.8236L121.426 35.0422L120.882 35.5219V36.1821L120.46 36.6643L119.616 36.0635L119.013 35.4008L118.291 35.2227L118.194 35.4131L117.988 35.8236V36.4838L117.203 36.1228V36.9042L116.178 36.244L115.878 36.3627H114.972L114.309 36.4838L113.827 36.8448L113.224 36.4838L112.743 36.7237L111.958 37.4432V37.8042L111.293 37.2652L110.571 36.8448L109.967 37.0847L109.243 36.6643L108.701 37.4432L108.279 37.5644L107.795 37.9254V36.8448L107.254 37.0228L106.651 36.783V37.2034L106.348 37.6855L105.926 36.8448L105.323 36.9042V37.6237L104.841 38.2246V37.6237L103.997 37.6855V38.1059L103.273 37.8042L102.369 38.0441L101.825 38.2864V38.8254H101.284L100.862 38.4051L100.378 39.1864L100.078 38.0441V37.505L99.5341 37.6855V38.4644L98.9905 38.2246V37.6237L98.5089 36.783L98.0274 36.4838L97.4837 36.8448L96.9401 36.783L96.3989 37.6855L95.4929 37.0228L95.1329 37.2652V38.2246L94.7705 37.866L94.3485 37.505L94.0457 37.2652L93.5641 37.3839V38.8872L93.0205 37.9847L92.6606 36.6025L92.2981 37.505V37.8042L91.8141 38.2246L91.1513 38.8872V39.1864H89.7637L89.4633 40.3288V39.4856L88.9197 39.728L88.2569 40.0865V39.1864L87.7753 38.4644L87.2913 38.1059L86.9313 37.6237L86.3877 38.4644V39.4856L85.4221 39.8466V39.6068L84.6997 39.1864L84.5781 39.3076L84.2157 39.6661L83.7937 40.1483V39.8466L82.7089 39.1864L82.2869 39.367V39.9678L81.7432 39.1864V38.4051L80.7801 38.1059V38.8254L80.4773 39.728V40.1483L79.874 40.0271L79.3925 39.6661L78.6676 40.267L78.3077 40.4475L78.6676 41.2882L77.7045 40.9297L76.5577 41.4094L75.8353 42.4306H75.17L74.2665 42.6705L72.9384 42.4306L72.3352 42.49L71.6128 42.9103L71.2504 43.9315L70.7689 42.9721H69.8628L68.8376 42.6111L68.2344 42.0696H67.1496L66.1865 41.5281H64.074L63.2896 41.0484L62.8676 40.5069H61.4204L60.4572 40.0271L59.6108 39.6068H58.3448L57.8036 39.0059L56.9571 38.5262L56.2944 38.2246L55.8128 37.6855V36.7237L54.728 36.1525H53.4L52.6155 36.783L51.6524 36.9635L50.9276 37.2034L50.3839 36.783L49.9619 36.7237L49.3587 36.8448L48.9988 36.1525L48.5768 36.6643L47.9115 36.5432L46.9484 36.1525L46.2235 35.883L45.4391 36.1525L44.2948 35.883L43.3291 35.6431L42.3635 35.8236L41.5195 35.4626L40.7972 35.4008L40.4347 34.9804L39.1067 34.7406L38.3843 34.8617L37.7215 35.3414L37.1183 34.9211L36.5747 34.8617L35.6091 35.1016L35.0679 35.2821L34.4051 35.4626H33.8019L33.0771 35.883L32.2927 36.1525L31.8707 35.883L31.2675 36.1525L30.7859 35.1016L29.5795 34.9804V35.2821L28.6759 34.8024L27.8915 34.9211L27.0475 35.7024L27.2883 34.4414L26.9259 35.0422H25.6599L24.935 35.5219L24.6347 35.8236L23.7286 36.0635L22.8846 35.8236L21.9811 36.1821L21.6782 36.6643L21.3183 36.7237L20.231 36.4838V37.0228L19.3274 36.1821H17.8802L17.1554 36.6643L16.7955 37.0228L16.3114 37.4432L15.6486 37.866L14.9263 37.505H14.3231L12.995 37.2034H12.2106L11.9698 36.422L11.1854 36.1821L10.5226 36.694H9.73819L9.07541 36.1821L8.23142 36.694H7.62821L6.60301 36.1821H5.33702L5.03417 36.8448L4.24976 36.4838H3.40576L2.74298 36.8745H1.71777L1.11457 37.2034L0 36.8745V27.869C0.799311 27.6539 1.54649 27.3077 2.34084 27.1099C2.97135 26.9541 3.48023 26.7217 3.82031 26.1678C3.82279 26.1431 3.82776 26.1233 3.83024 26.0986C4.20011 26.0714 4.59976 25.4458 4.92991 26.0986C5.39411 27.0234 6.39449 27.3943 7.00266 28.1682C7.13919 28.3438 7.39239 28.3561 7.62076 28.2622C8.05269 27.9308 8.4027 27.513 8.75519 27.1C8.82221 27.058 8.88675 27.0159 8.95378 26.9714C8.96619 26.9146 8.98108 26.8577 9.00094 26.8008C9.41549 26.2395 9.98891 26.7909 10.4556 26.5906C10.4903 26.5338 10.5301 26.4843 10.5673 26.4423C10.6244 26.4744 10.6815 26.467 10.7411 26.42C10.7982 26.4151 10.8602 26.4101 10.9173 26.4027C11.9177 26.4027 12.3471 27.2014 12.8982 27.822C13.1514 28.1089 13.3649 28.4773 13.8316 28.1509C13.9507 28.141 14.0699 28.1311 14.189 28.1237C14.1989 28.0718 14.2064 28.0198 14.2114 27.963C14.2685 27.9234 14.2883 27.8814 14.2784 27.8393C14.5092 27.7676 14.7351 27.6786 14.9734 27.6415C15.2763 27.4239 15.594 27.2138 15.594 26.828C15.7802 26.744 15.8671 26.5832 15.9291 26.3978L15.9217 26.3879C16.0359 26.3038 16.0483 26.2098 15.9912 26.1035C16.5944 25.9774 16.7359 25.4705 16.9072 24.9884C16.8724 24.8425 16.8972 24.7015 16.927 24.5581C17.3912 24.2094 17.8654 23.9226 18.5604 24.3207C18.7317 24.4172 18.9253 24.3133 19.0817 24.1452C19.1065 24.1501 19.1338 24.1551 19.1636 24.1575C19.253 24.1377 19.3374 24.1031 19.4143 24.0537C19.5236 23.9276 19.6328 23.8509 19.747 23.8015C20.0622 23.7817 20.3601 23.8756 20.6704 24.1031C21.0576 24.385 21.4225 24.39 21.6335 24.0166C21.6931 23.9622 21.7527 23.8954 21.8073 23.8039C21.9289 23.6012 22.1573 23.5146 22.3062 23.3465C22.6066 23.0325 22.8623 22.6912 22.9368 22.2486C22.9368 22.1299 22.9492 22.0162 22.9541 21.9024C23.2222 21.8827 23.4382 22.1744 23.674 22.3599C24.0414 22.4613 23.9843 23.2773 24.6223 22.9138C25.0492 23.0028 25.6797 22.7357 25.8783 23.1264C26.3822 24.1254 27.0276 23.8361 27.7376 23.5122L27.7252 23.5369C27.7922 23.5344 27.8567 23.5319 27.9263 23.527C28.2564 23.7965 28.5543 23.7026 28.8522 23.4602C29.1898 23.1808 29.5373 22.9138 29.8774 22.6442C30.066 22.6714 30.2522 22.7036 30.4384 22.7308C31.0714 22.6047 31.6274 22.0533 32.3448 22.397C33.0572 22.9608 33.5661 22.7531 33.931 21.9865C34.1966 22.0038 34.3853 22.1349 34.5144 22.3574C34.5317 22.716 34.7427 22.889 35.0754 22.9509C35.1374 23.0151 35.1995 23.077 35.2665 23.1363C34.8669 24.0413 35.8499 24.4048 36.0311 25.0798C36.113 25.1689 36.1949 25.201 36.2743 25.201C36.3935 25.201 36.5126 25.1268 36.6293 25.0625C36.9421 25.1318 37.0116 25.3642 37.024 25.6387C36.9619 25.7549 36.9024 25.8686 36.8453 25.9848C37.0861 26.1109 37.1605 26.4596 37.5254 26.4497C38.5581 26.4225 39.6329 26.6277 40.5067 25.8315C40.5092 25.7104 40.5117 25.5843 40.5142 25.4606C40.6954 25.3049 40.8667 25.1441 40.8865 24.882C40.9386 24.8697 40.9883 24.8548 41.0404 24.84C41.8025 24.8425 42.2841 25.3246 42.7557 25.8216C42.8873 26.1629 43.143 26.289 43.5004 26.3038C44.9402 26.3508 46.2955 25.9552 47.6459 25.5323C47.6484 25.5299 47.6509 25.5299 47.6583 25.5274C47.6558 25.567 47.6558 25.6065 47.6558 25.6436C48.1399 25.8117 48.6438 26.1035 49.0013 25.4433C49.0733 25.3222 49.1452 25.201 49.2147 25.0774C49.2942 25.0081 49.3761 24.934 49.4531 24.8622C49.4506 24.8474 49.4431 24.835 49.4406 24.8227C50.4584 24.3182 51.5258 24.0982 52.6652 24.2911C52.7645 24.746 53.0003 24.9241 53.4422 24.657C53.6581 24.4988 53.6805 24.1402 54.0181 24.1056C54.09 24.2713 54.162 24.3652 54.2315 24.3652C54.2936 24.3652 54.3606 24.2812 54.4202 24.0982C54.6982 23.8138 55.0309 23.794 55.3883 23.9103C55.4305 23.8979 55.4752 23.8855 55.5174 23.8732C55.5968 23.8039 55.6763 23.7298 55.7507 23.6531C55.8153 23.6061 55.8773 23.5616 55.9444 23.5146C55.9592 23.4578 55.9816 23.4034 56.0064 23.349C56.0312 23.3094 56.0387 23.2723 56.0337 23.2377C56.0461 23.208 56.0585 23.1759 56.071 23.1413C56.0759 23.1165 56.0834 23.0918 56.0908 23.0696C56.4681 22.5379 56.9596 22.1349 57.5132 21.7912C57.5852 21.6576 57.6596 21.5266 57.7341 21.3956C57.7912 21.2793 57.8458 21.1631 57.9104 21.0518C58.0097 20.9109 58.1189 20.8071 58.2331 20.7279C58.7122 20.4831 59.1689 20.4411 59.5413 21.2299C59.6505 21.4574 59.8416 21.5266 60.0973 21.4054C60.5243 21.2002 60.9636 21.0246 61.398 20.8343C61.6587 20.812 61.8622 20.7081 61.9715 20.4535L61.9615 20.4461C62.2842 20.1518 62.6069 20.001 62.9296 20.001C63.2523 20.001 63.5651 20.1468 63.8829 20.4337C64.3868 20.1246 64.7616 20.3645 65.1786 20.6612C65.9556 21.2151 66.7648 21.7986 67.7503 21.0345C67.9936 21.6552 68.1996 22.3475 69.0858 21.8184C69.5823 22.0508 70.1334 22.0508 70.6596 22.1646C70.9029 22.3698 71.0196 22.7382 71.4217 22.7357C71.4788 22.669 71.5359 22.6047 71.5955 22.5404C71.6699 22.2264 71.7444 21.9123 71.8164 21.5958H71.8214C72.1267 21.8134 72.4618 22.0014 72.7324 22.2536C73.6384 23.1017 74.2019 22.9781 74.7108 21.7838C74.7853 21.5983 74.8597 21.4104 74.9367 21.2249C75.1353 21.0766 75.2445 20.8714 75.2966 20.6315C75.3537 20.629 75.4083 20.6216 75.4605 20.6117C75.5349 20.5672 75.6044 20.5178 75.6665 20.4535C75.669 20.451 75.669 20.4461 75.6715 20.4436C75.8998 20.4584 76.1059 20.545 76.3194 20.6562C76.8531 20.9356 77.3719 20.906 77.8088 20.4362C77.8783 20.2507 77.9453 20.0653 78.0173 19.8798C78.0123 19.682 78.0073 19.4817 78.0024 19.2839V19.2789C78.4467 19.2839 78.8935 19.2888 79.3379 19.2913C79.5216 19.4792 79.4347 20.0306 79.7549 20.0306C79.8443 20.0306 79.9684 19.9861 80.1397 19.8798C80.3184 19.7982 80.5021 19.7166 80.6833 19.635C80.5964 19.18 81.0457 18.9179 81.0978 18.5124C81.1574 18.4481 81.2195 18.3789 81.2815 18.3146C81.9865 17.8448 82.8702 18.411 83.5851 17.9388C83.5901 17.9388 83.7341 18.1168 83.7887 18.2256C83.9054 18.4506 84.0543 18.819 84.2777 18.7028C84.5657 18.552 85.0596 18.4605 84.9852 17.9313C85.0348 17.8621 85.0845 17.7929 85.1316 17.7236C86.0178 17.0659 87.0654 16.9769 88.1104 16.8854C88.5275 16.8458 88.7956 17.0313 88.9023 17.4146C89.1282 18.2058 89.6321 18.4457 90.3197 18.3443C90.347 18.3863 90.3768 18.4234 90.4116 18.4605C90.4811 18.5174 90.5605 18.5619 90.6499 18.594C90.6921 18.6039 90.7293 18.6212 90.7715 18.6336C90.7839 18.7226 90.8038 18.8091 90.846 18.8932C90.9279 19.0391 91.0148 19.1825 91.1116 19.316C91.2059 19.504 91.3499 19.6573 91.5559 19.7685C91.6056 19.8056 91.6552 19.8427 91.7123 19.8749C91.958 20.0207 92.1442 20.268 92.4396 20.3348C92.2311 20.6562 92.4247 20.9703 92.534 21.2868C92.7698 21.5439 93.023 21.7862 92.9907 22.1868C92.9733 22.4143 93.013 22.6814 93.3283 22.6096C93.6212 22.5429 93.6485 22.3376 93.5567 22.1126C93.6038 22.1102 93.651 22.1027 93.6982 22.0879C93.9613 21.9321 94.1326 21.6478 94.4429 21.5686C94.5943 21.4895 94.7457 21.4104 94.8947 21.3337C95.056 21.2373 95.2 21.1161 95.3415 20.99C95.6443 20.8713 95.8975 20.634 96.1582 20.4263C96.2823 20.3842 96.4163 20.3595 96.5653 20.362C98.0398 19.8056 99.3182 19.0613 99.5465 17.3008C99.554 17.15 99.5565 17.0016 99.5093 16.8681C99.6136 16.7914 99.6955 16.6975 99.7551 16.5837C99.7625 16.5689 99.7675 16.559 99.7724 16.5466C100.453 16.7989 101.19 16.653 101.835 16.1238C101.863 16.1708 101.897 16.2178 101.942 16.2524C102.406 16.5936 102.858 16.5516 103.372 16.3142C104.025 16.0101 104.591 15.4809 105.378 15.518C105.477 15.5032 105.569 15.4735 105.656 15.4166C105.951 15.1372 106.321 14.974 106.671 14.7762C106.931 14.6254 107.175 14.4498 107.128 14.163C107.2 14.1432 107.269 14.1135 107.339 14.0764C107.557 13.8168 108.036 13.6833 107.813 13.2036C108.135 13.3594 108.456 13.2209 108.719 13.075C109.275 12.7659 109.64 12.9044 110.161 13.253C110.648 13.5819 111.104 14.116 111.807 14.0665C111.891 14.0393 111.971 13.9973 112.038 13.9355C112.216 13.7624 112.39 13.5794 112.676 13.6487C113.266 13.9132 113.641 14.4276 114.056 14.885C114.359 15.2163 114.622 15.3078 114.887 15.0482C114.815 15.607 115.2 15.8469 115.694 16.0076C115.632 16.0447 115.577 16.0917 115.535 16.1535C115.409 16.925 116.109 16.7989 116.486 17.0214C116.593 17.0486 116.695 17.0783 116.796 17.1178C116.938 17.2143 117.087 17.2959 117.26 17.3082C117.37 17.8201 117.596 18.233 118.211 18.3097C118.422 18.2849 118.529 18.1341 118.631 17.9783C118.765 18.0945 118.916 18.1885 119.087 18.2701C119.572 18.5 119.807 18.3566 119.827 17.83C119.822 17.8201 119.812 17.8126 119.807 17.8052C119.81 17.8028 119.815 17.8003 119.817 17.7978C119.996 17.9165 120.172 17.9239 120.339 17.7582V17.7459C120.631 17.9017 120.855 17.8448 120.999 17.5382C121.61 17.5703 122.312 17.4492 122.769 17.7286C123.332 18.0723 123.707 17.9734 123.985 17.6049C124.462 16.967 125.189 16.7024 125.762 16.2227C125.762 16.2153 125.77 16.2054 125.775 16.198C125.792 16.2598 125.817 16.3191 125.842 16.3859C126.343 16.5541 126.847 16.5096 127.346 16.3958C127.741 16.3043 127.922 16.104 127.753 15.748C127.796 15.7678 127.843 15.7851 127.89 15.7974C127.984 15.8024 128.076 15.7875 128.165 15.7579C128.374 15.6392 128.446 15.4315 128.568 15.246C129.049 14.5166 129.377 13.6635 130.169 13.1714C130.226 13.0973 130.28 13.0255 130.325 12.9415C130.387 12.8203 130.514 12.7288 130.63 12.6349C130.712 12.5953 130.774 12.5384 130.819 12.4618C130.866 12.4 130.901 12.3357 130.911 12.2565C131.174 11.7422 131.663 11.8016 132.14 11.7694C132.202 11.7027 132.229 11.6384 132.219 11.5716C132.251 11.5518 132.284 11.5296 132.311 11.5073C132.442 11.3614 132.48 11.2007 132.398 11.0301C132.778 11.1389 133.15 11.2131 133.378 11.6582C133.505 11.9079 133.833 12.0662 134.145 11.8659L134.287 12.0142C134.433 12.0464 134.58 12.0513 134.729 12.0439H134.739C134.997 12.4989 135.555 12.5434 135.987 12.761C136.335 12.7338 136.546 12.5261 136.697 12.2368C136.719 12.1478 136.722 12.0612 136.702 11.9796C136.712 11.9697 136.722 11.9574 136.732 11.945C136.747 11.9227 136.762 11.9054 136.777 11.8856C137.489 11.9128 137.928 11.4455 138.383 10.998C138.44 10.6617 138.683 10.6864 138.909 10.6815C138.909 10.6864 138.909 10.6913 138.914 10.6963C138.949 10.768 138.986 10.8348 139.026 10.899C138.944 11.7249 139.266 12.034 140.115 12.0538C140.835 12.0686 141.394 11.7398 141.932 11.3367C141.999 11.2526 142.044 11.1636 142.069 11.0573C142.069 11.035 142.076 11.0128 142.081 10.9881C142.414 10.8892 142.657 10.5405 143.032 10.5776C143.856 10.6592 144.243 10.1523 144.526 9.49457C144.566 9.40803 144.591 9.31406 144.591 9.21268C144.591 9.06679 144.576 8.92585 144.499 8.7948C144.482 8.77749 144.467 8.76514 144.447 8.74536C144.983 8.9135 145.591 9.29181 145.703 8.25328C145.696 8.20878 145.688 8.1618 145.678 8.11729C145.715 8.09009 145.753 8.06536 145.787 8.03816C145.931 8.00849 146.083 7.99119 146.239 7.98872C146.331 7.96647 146.415 7.92937 146.487 7.8725C146.698 7.60792 147.173 7.50159 147.058 7.03426C147.418 7.48676 148.081 7.31861 148.511 7.63512C149.369 8.19888 150.251 8.38681 151.191 7.81068C151.502 7.62028 151.849 7.57826 152.204 7.67964C152.462 7.81316 152.678 8.12718 153.001 7.97882C153.264 8.45852 153.515 8.12966 153.716 7.9269C153.949 7.68458 154.133 7.39527 154.339 7.12574C154.384 6.83644 154.558 6.69551 154.761 6.59165C154.927 6.60896 155.101 6.58918 155.272 6.54715C155.62 6.32708 155.699 6.03035 155.55 5.65945C155.699 5.75341 155.873 5.75095 155.98 5.63968C156.447 5.13525 157.107 5.10805 157.69 4.89045C158.008 4.6506 158.477 4.84594 158.785 4.57642C158.822 4.85089 158.998 4.96464 159.294 4.92755C159.311 4.91766 159.324 4.90529 159.339 4.8954C159.594 4.91518 159.681 4.67039 159.8 4.47505C159.944 4.51214 160.088 4.54181 160.22 4.61351C160.989 5.02151 161.704 5.01656 162.431 4.45773C162.903 4.0992 163.253 3.6838 163.506 3.16701C163.509 3.15712 163.511 3.14475 163.514 3.13486C163.551 3.13981 163.583 3.1225 163.621 3.07552C164.048 2.73182 163.971 1.63394 164.983 2.16556C164.981 2.17051 164.978 2.17051 164.976 2.17299C165.567 3.05573 166.378 2.66752 167.054 2.42273C167.54 2.24222 167.769 2.26942 167.858 2.53153C167.803 2.80599 167.798 3.08541 167.833 3.36729C167.858 3.53296 167.93 3.6739 168.064 3.77775C168.059 3.78022 168.056 3.78269 168.051 3.78763C168.034 3.93105 168.084 4.05717 168.173 4.16844C168.436 4.58385 168.836 4.64566 169.283 4.5962C169.357 4.55417 169.404 4.49236 169.424 4.41818C170.134 4.46763 170.857 4.74456 171.529 4.26981C171.81 4.06952 172.065 4.20305 172.321 4.31679C172.78 4.41817 173.163 4.42312 173.158 3.90633C173.17 3.90633 173.178 3.90633 173.185 3.90386C173.262 3.8544 173.326 3.79011 173.374 3.71346C173.411 3.62691 173.421 3.54038 173.411 3.44642C173.406 3.40686 173.386 3.36976 173.369 3.33267C173.565 3.21151 173.781 3.14969 174.002 3.11012C174.391 3.12496 174.779 2.9321 175.168 2.99639C175.253 2.98897 175.337 2.97413 175.419 2.94693C175.533 2.94941 175.647 2.93704 175.757 2.91231C176.139 3.06809 176.524 3.22881 176.951 2.90736C177.072 2.81835 177.196 2.89007 177.276 2.99639C177.74 3.63929 177.723 3.28074 177.735 2.99144C177.941 3.02111 178.09 3.16206 178.261 3.26097C178.331 3.28817 178.4 3.30794 178.475 3.31536C178.825 3.66648 179.148 2.91726 179.498 3.0854C180.046 3.167 180.456 3.07552 180.473 2.47219C181.051 3.08541 181.794 3.20904 182.581 2.82083C182.605 2.84555 182.628 2.86781 182.655 2.89007C182.732 2.93952 182.816 2.9766 182.906 2.99885C182.911 3.01369 182.913 3.031 182.918 3.04583C182.995 3.18925 183.085 3.3475 183.238 3.39201C184.787 3.82473 186.324 4.3984 187.972 3.87666C188.896 3.76539 189.31 4.2624 189.452 5.09321C189.551 5.45917 189.668 5.8177 189.836 6.15646C190.412 6.67572 190.993 6.66089 191.76 6.11195C192.224 6.68809 192.952 6.47792 193.55 6.64359C193.826 6.72024 194.118 6.63369 194.176 7.05652C194.253 7.64007 194.647 7.70683 195.171 7.63759C196.33 7.48923 197.475 7.05652 198.671 7.41753C198.927 7.49419 199.168 7.32604 199.371 7.16037C199.696 6.75979 200.136 6.42105 200.079 5.82513C200.354 5.89931 200.543 5.83502 200.575 5.54077C200.602 5.5556 200.63 5.56797 200.652 5.58527C201.047 5.55313 201.426 5.47895 201.714 5.16987C201.868 4.841 201.985 4.49482 202.32 4.27228C202.429 4.1981 202.551 4.09673 202.573 3.97063C202.648 3.93848 202.717 3.90386 202.784 3.85935C202.854 3.79754 202.916 3.73572 202.97 3.66154C203.618 2.93457 204.502 3.04089 205.341 2.99144C205.428 2.97908 205.51 2.95188 205.587 2.91231H205.592C205.805 3.07551 206.081 3.10272 206.339 3.16701C206.545 3.17195 206.714 3.07304 206.895 2.99639C207.364 2.77385 207.923 2.80599 208.367 2.50927C208.367 2.51421 208.372 2.51669 208.377 2.51917C208.042 3.17195 208.156 3.31288 208.921 3.35492C209.05 3.29063 209.179 3.22387 209.308 3.16947C209.695 2.93456 210.202 3.12991 210.576 2.85545C210.589 2.86039 210.604 2.86534 210.621 2.87028C210.646 3.04831 210.78 3.16205 210.939 3.15711C211.748 3.12496 212.542 3.27085 213.347 3.28569C213.349 3.29558 213.354 3.30299 213.362 3.30794C213.416 3.36975 213.473 3.42663 213.535 3.4835C213.689 3.58241 213.838 3.66648 213.972 3.66648C214.106 3.66648 214.218 3.58489 214.307 3.36729C214.615 3.51318 214.906 3.75797 215.27 3.50081C215.593 3.62444 215.911 3.7456 216.234 3.86924C216.306 3.88407 216.318 3.96567 216.33 4.05221C216.335 4.1165 216.335 4.18327 216.325 4.24756C216.325 4.39345 216.311 4.53687 216.296 4.68028C216.179 5.12042 216.45 5.4196 216.675 5.7361C216.747 5.89188 216.827 6.03778 216.911 6.17625C216.911 6.25784 216.894 6.33449 216.837 6.40373C216.854 6.45565 216.867 6.50758 216.877 6.55951C217.194 6.76969 217.547 6.92546 217.763 7.26916C218.157 7.89228 218.497 7.80079 218.768 7.16284C218.823 7.15542 218.877 7.14305 218.932 7.12574C218.79 6.87353 218.813 6.62132 218.939 6.37158C219.011 6.31471 219.083 6.26031 219.153 6.20097C219.627 5.72869 219.845 6.018 219.989 6.49028C220.032 6.6337 219.97 6.80678 220.079 6.93288C220.195 7.06146 220.332 7.1035 220.461 6.94524C220.674 6.82903 220.885 6.71035 221.096 6.5966C221.171 6.3073 221.335 6.11442 221.536 5.96606C221.739 5.81523 221.978 5.71138 222.209 5.59022C222.345 5.25147 222.685 5.17481 222.963 5.01656C222.896 4.47752 222.881 4.00029 223.417 3.60466C223.755 3.35739 223.941 2.90737 224.197 2.54636C224.825 2.53153 225.455 2.51669 226.084 2.49938C226.158 2.32877 226.23 2.15321 226.302 1.97765C226.749 1.93067 227.158 1.54246 227.608 1.54246C227.695 1.54246 227.784 1.5573 227.873 1.59191C227.891 1.66362 227.915 1.74027 227.945 1.81445C228.02 1.93561 228.112 2.04441 228.206 2.14827C228.243 2.19277 228.256 2.2447 228.241 2.2991C228.479 2.52411 228.727 2.67 229.03 2.39553C229.45 2.27932 229.549 2.55872 229.685 2.86533C229.881 3.30547 230.169 3.6739 230.73 3.65659L230.76 3.67143C231.085 3.86924 231.418 3.99287 231.773 3.99287C231.793 3.99287 231.815 3.9904 231.835 3.9904C231.885 4.04232 231.934 4.09673 231.989 4.15113C232.503 4.2624 232.863 4.67039 233.349 4.83359C233.421 4.8682 233.493 4.89788 233.563 4.93002C233.58 4.96711 233.595 4.99926 233.612 5.03635C233.786 5.23169 233.799 5.66192 234.196 5.53582C234.687 5.38004 234.95 4.98441 235.055 4.48493C235.156 4.39839 235.258 4.3168 235.36 4.23025C235.626 4.17091 235.889 4.11156 236.154 4.05221C236.365 4.04232 236.584 4.08931 236.758 3.92117C237.016 3.83215 237.207 3.66895 237.376 3.4835C237.547 3.29805 237.698 3.09283 237.882 2.91974C238.297 2.95683 238.696 3.05078 239.081 3.1843C239.466 3.31783 239.838 3.49092 240.203 3.68379C240.516 3.27085 241.136 3.92363 241.399 3.34256C241.457 3.33267 241.509 3.32031 241.566 3.30053C241.69 3.10518 241.819 2.91232 241.948 2.71945C242.278 2.5884 242.705 2.41531 242.842 2.85545C243.02 3.439 243.509 3.44888 243.912 3.64917C243.971 3.65658 244.031 3.65658 244.088 3.64917L244.277 3.8544C244.614 3.92364 244.895 3.8544 245.061 3.51565C245.361 3.46372 245.689 3.53049 245.86 3.13486C246.173 2.41037 246.719 2.36091 247.36 2.7145C247.737 2.76396 248.119 2.81094 248.499 2.85792C248.571 2.75407 248.648 2.65021 248.722 2.54141C248.854 2.42025 248.988 2.29662 249.12 2.17051C249.482 2.31393 249.628 1.88863 249.899 1.78725C249.956 1.75758 250.013 1.73037 250.073 1.7007C250.202 1.64383 250.331 1.58449 250.462 1.52515C250.557 1.58449 250.641 1.60921 250.721 1.60921C250.87 1.60921 250.999 1.51525 251.12 1.36689C251.267 1.18886 251.329 0.808064 251.661 0.96137C251.93 1.08748 251.758 1.43366 251.85 1.65373C252.118 2.29168 251.957 3.13733 252.751 3.52307C252.736 3.56758 252.731 3.6096 252.731 3.64917C252.731 4.08683 253.575 4.25745 253.161 4.82616C253.223 5.16492 253.332 5.44433 253.769 5.25888C253.938 5.25641 254.109 5.25394 254.275 5.25147C254.32 5.59517 254.511 5.8004 254.859 5.8548C254.921 6.0452 255.008 6.20344 255.229 6.20344C255.246 6.20344 255.261 6.20344 255.281 6.20097C256.063 6.11937 256.681 6.64605 257.411 6.76227C257.78 6.96256 258.148 7.16038 258.518 7.35572C258.552 7.46699 258.587 7.5733 258.622 7.6821C258.997 8.00354 259.257 8.39423 259.369 8.87888C259.493 9.35858 259.905 9.50199 260.297 9.66519C260.355 9.80366 260.424 9.86795 260.501 9.86795C260.571 9.86795 260.645 9.81602 260.727 9.72948C261.005 9.66519 261.151 9.82839 261.268 10.041C261.226 10.1721 261.181 10.3056 261.137 10.4367C261.181 10.5009 261.228 10.5652 261.276 10.6295C261.626 10.5801 261.745 10.8768 261.953 11.0573C262.194 11.265 262.398 11.6507 262.827 11.3985C262.882 11.4084 262.941 11.4134 262.996 11.4109C263.5 12.1477 262.872 12.2417 262.326 12.3604C262.661 12.6695 262.964 12.4296 263.229 12.5261C263.909 12.6126 263.701 13.3099 264.011 13.6536L264.56 13.6932C264.768 13.9627 264.478 14.5463 265.101 14.5561C265.235 14.8158 265.424 14.9468 265.642 15.0161C265.855 15.0803 266.104 15.0828 266.347 15.0828C266.409 15.0729 266.474 15.0705 266.536 15.0754C267.035 14.3237 267.335 13.4459 267.988 12.7931C268.07 12.6003 268.132 12.3925 268.395 12.3802C268.549 12.6077 268.775 12.5533 268.993 12.5285C269.003 12.4643 269.015 12.395 269.028 12.3307C269.733 12.259 269.643 11.4332 270.142 11.1686C270.227 10.9213 270.294 10.674 270.197 10.4144C270.244 10.3081 270.294 10.2018 270.341 10.093C270.411 10.0732 270.483 10.0534 270.552 10.0311C271.044 9.49457 271.701 9.20527 272.314 8.85168C273.121 8.95801 273.494 8.31511 273.993 7.89228H274Z" fill="#F0E74D"/>
</svg>
